{"title":"Squatters 2014 DVD9rip English Klam","uid":10641431,"size":1270392007,"categoryP":"video","categoryS":"movies","magnet":"?xt=urn:btih:e0119b968ab60d27e6dc1f52ef11ab7d5aa8c396&amp;dn=Squatters+2014+DVD9rip+English+Klam&amp;tr=udp%3A%2F%2Ftracker.openbittorrent.com%3A80&amp;tr=udp%3A%2F%2Fopen.demonii.com%3A1337&amp;tr=udp%3A%2F%2Ftracker.coppersurfer.tk%3A6969&amp;tr=udp%3A%2F%2Fexodus.desync.com%3A6969","seeders":1,"leechers":0,"uploader":"Klambake","files":-1,"time":1406419287,"description":"With: Gabriella Wilde, Thomas Dekker and Luke Grimes\n\nStel je voor dat je het leven van iemand anders kan leiden... Voor de twee jonge zwervers Jonas (Thomas Dekker) en Kelly (Gabriella Wilde) komt die droom uit als ze het huis kraken van een rijke familie die op vakantie is. Maar het loopt helemaal uit de hand als de bewoners, Michael Silverman (Luke Grimes) en zijn vader (Richard Dreyfuss), onverwacht terugkeren uit het buitenland. Jonas en Kelly zitten als ratten in de val en het mondt uit in een gewelddadige, onvermijdelijke confrontatie tussen twee totaal verschillende werelden.\n\nHome early from their vacation, a wealthy Pacific Palisades family discovers a pair of homeless young drifters who were squatting in their home.\n &lt;a href=&quot;\nhttp://www.imdb.com/title/tt2359307&quot; rel=&quot;nofollow&quot; target=&quot;_NEW&quot;&gt;\nhttp://www.imdb.com/title/tt2359307&lt;/a&gt;\t\n\n--------------------- Dutch Friends 4ever ---------------------\n---------------------------------------------------------------\n- Bezoek ook eens mijn vrienden op: &lt;a href=&quot; http://www.Film-Test.nl&quot; rel=&quot;nofollow&quot; target=&quot;_NEW&quot;&gt; http://www.Film-Test.nl&lt;/a&gt; --\n----- voor mijn Nederlandse Sync. ondertitels ---- en meer ----\n------- http://www.Film-Test.nl ---- Over Films en meer -------\n---------------------------------------------------------------\n &lt;a href=&quot;\nhttp://i.imgur.com/RreEuZB.jpg&quot; rel=&quot;nofollow&quot; target=&quot;_NEW&quot;&gt;\nhttp://i.imgur.com/RreEuZB.jpg&lt;/a&gt; &lt;a href=&quot;\nhttp://i.imgur.com/72AhVqm.jpg&quot; rel=&quot;nofollow&quot; target=&quot;_NEW&quot;&gt;\nhttp://i.imgur.com/72AhVqm.jpg&lt;/a&gt; &lt;a href=&quot;\nhttp://i.imgur.com/uFITJTR.jpg&quot; rel=&quot;nofollow&quot; target=&quot;_NEW&quot;&gt;\nhttp://i.imgur.com/uFITJTR.jpg&lt;/a&gt;\n\nGeneral:\n\nComplete name                            : SquattersSquatters.avi\nFormat                                   : AVI\nFormat/Info                              : Audio Video Interleave\nFile size                                : 1.18 GiB\nDuration                                 : 1h 41mn\nOverall bit rate                         : 1 668 Kbps\n\nVideo:\n\nFormat                                   : MPEG-4 Visual\nFormat profile                           : Simple@L3\nFormat settings, BVOP                    : No\nFormat settings, QPel                    : No\nFormat settings, GMC                     : No warppoints\nFormat settings, Matrix                  : Default (H.263)\nCodec ID                                 : XVID\nCodec ID/Hint                            : XviD\nDuration                                 : 1h 41mn\nBit rate                                 : 1 209 Kbps\nWidth                                    : 720 pixels\nHeight                                   : 304 pixels\nDisplay aspect ratio                     : 2.35:1\nFrame rate                               : 25.000 fps\nColor space                              : YUV\nChroma subsampling                       : 4:2:0\nBit depth                                : 8 bits\nScan type                                : Progressive\nCompression mode                         : Lossy\nBits/(Pixel*Frame)                       : 0.221\nStream size                              : 878 MiB (72%)\nWriting library                          : XviD 1.1.2 (UTC 2006-11-01)\n\nAudio:\n\nFormat                                   : AC-3\nFormat/Info                              : Audio Coding 3\nMode extension                           : CM (complete main)\nFormat settings, Endianness              : Big\nCodec ID                                 : 2000\nDuration                                 : 1h 41mn\nSource duration                          : 1h 41mn\nBit rate mode                            : Constant\nBit rate                                 : 448 Kbps\nChannel(s)                               : 6 channels\nChannel positions                        : Front: L C R, Side: L R, LFE\nSampling rate                            : 48.0 KHz\nBit depth                                : 16 bits\nCompression mode                         : Lossy\nStream size                              : 325 MiB (27%)\nAlignment                                : Aligned on interleaves\nInterleave, duration                     : 32 ms (0.80 video frame)\n\n","torrent":{"xt":"urn:btih:e0119b968ab60d27e6dc1f52ef11ab7d5aa8c396","amp;dn":"Squatters+2014+DVD9rip+English+Klam","amp;tr":["udp%3A%2F%2Ftracker.openbittorrent.com%3A80","udp%3A%2F%2Fopen.demonii.com%3A1337","udp%3A%2F%2Ftracker.coppersurfer.tk%3A6969","udp%3A%2F%2Fexodus.desync.com%3A6969"],"infoHash":"e0119b968ab60d27e6dc1f52ef11ab7d5aa8c396","infoHashBuffer":{"type":"Buffer","data":[224,17,155,150,138,182,13,39,230,220,31,82,239,17,171,125,90,168,195,150]},"announce":[],"urlList":[]}}